<svg width="100" height="100" viewBox="0 0 100 100" fill="none" xmlns="http://www.w3.org/2000/svg">
<g clip-path="url(#clip0_1_29)">
<path d="M35 20L5 50L35 80L65 50L95 20H35Z" fill="#F6461A"/>
<path d="M35 80L65 50L95 80H35Z" fill="#DB342C"/>
<path d="M66.9205 72.2727V71.5057C66.9205 70.9754 67.0294 70.4901 67.2472 70.0497C67.4697 69.6046 67.7917 69.2495 68.2131 68.9844C68.6392 68.7145 69.1553 68.5795 69.7614 68.5795C70.3769 68.5795 70.893 68.7145 71.3097 68.9844C71.7263 69.2495 72.0412 69.6046 72.2543 70.0497C72.4673 70.4901 72.5739 70.9754 72.5739 71.5057V72.2727C72.5739 72.803 72.465 73.2907 72.2472 73.7358C72.0341 74.1761 71.7169 74.5312 71.2955 74.8011C70.8788 75.0663 70.3674 75.1989 69.7614 75.1989C69.1458 75.1989 68.6274 75.0663 68.206 74.8011C67.7846 74.5312 67.465 74.1761 67.2472 73.7358C67.0294 73.2907 66.9205 72.803 66.9205 72.2727ZM68.3693 71.5057V72.2727C68.3693 72.7131 68.4735 73.1084 68.6818 73.4588C68.8902 73.8045 69.25 73.9773 69.7614 73.9773C70.2585 73.9773 70.6089 73.8045 70.8125 73.4588C71.0208 73.1084 71.125 72.7131 71.125 72.2727V71.5057C71.125 71.0653 71.0256 70.6723 70.8267 70.3267C70.6278 69.9763 70.2727 69.8011 69.7614 69.8011C69.2642 69.8011 68.9067 69.9763 68.6889 70.3267C68.4759 70.6723 68.3693 71.0653 68.3693 71.5057ZM59.6761 63.9489V63.1818C59.6761 62.6515 59.785 62.1662 60.0028 61.7259C60.2254 61.2808 60.5473 60.9257 60.9688 60.6605C61.3949 60.3906 61.911 60.2557 62.517 60.2557C63.1326 60.2557 63.6487 60.3906 64.0653 60.6605C64.482 60.9257 64.7969 61.2808 65.0099 61.7259C65.223 62.1662 65.3295 62.6515 65.3295 63.1818V63.9489C65.3295 64.4792 65.2206 64.9669 65.0028 65.4119C64.7898 65.8523 64.4725 66.2074 64.0511 66.4773C63.6345 66.7424 63.1231 66.875 62.517 66.875C61.9015 66.875 61.383 66.7424 60.9616 66.4773C60.5402 66.2074 60.2206 65.8523 60.0028 65.4119C59.785 64.9669 59.6761 64.4792 59.6761 63.9489ZM61.125 63.1818V63.9489C61.125 64.3892 61.2292 64.7846 61.4375 65.1349C61.6458 65.4806 62.0057 65.6534 62.517 65.6534C63.0142 65.6534 63.3646 65.4806 63.5682 65.1349C63.7765 64.7846 63.8807 64.3892 63.8807 63.9489V63.1818C63.8807 62.7415 63.7812 62.3485 63.5824 62.0028C63.3835 61.6525 63.0284 61.4773 62.517 61.4773C62.0199 61.4773 61.6624 61.6525 61.4446 62.0028C61.2315 62.3485 61.125 62.7415 61.125 63.1818ZM60.2159 75L70.2159 60.4545H71.8352L61.8352 75H60.2159Z" fill="white"/>
</g>
<defs>
<clipPath id="clip0_1_29">
<rect width="90" height="60" fill="white" transform="translate(5 20)"/>
</clipPath>
</defs>
</svg>
